<svg width="24" height="27" viewBox="0 0 24 27" fill="none" xmlns="http://www.w3.org/2000/svg">
<path d="M23.9515 9.29445C23.6652 8.15724 23.3309 7.03382 22.963 5.91997C22.475 4.44282 21.9264 2.98814 21.298 1.56369C21.1375 1.19974 20.9698 0.838679 20.8024 0.47762C20.6637 0.178812 20.3578 -0.0170578 20.0031 0.001173C19.4273 0.0307425 18.8552 0.101665 18.2841 0.179257C18.1935 0.191485 18.1904 0.19571 18.2025 0.282195C18.2812 0.842459 18.4444 1.37938 18.6588 1.90251C18.6846 1.96543 18.7217 2.00301 18.7865 2.02924C19.1897 2.19221 19.5432 2.43099 19.8419 2.74402C20.4333 3.36365 20.7082 4.08043 20.5115 4.93661C20.2074 6.26124 18.8845 7.10986 17.5318 6.8275C16.0866 6.52581 15.2026 5.06356 15.6391 3.6589C15.6638 3.57953 15.6627 3.51172 15.6297 3.43301C15.2833 2.60574 15.0219 1.75356 14.8767 0.868027C14.863 0.783987 14.8587 0.780207 14.7675 0.796659C14.6385 0.820004 14.5099 0.845127 14.3814 0.870472C13.1308 1.11703 11.8809 1.36648 10.6368 1.64395C10.2149 1.73799 9.88926 1.96299 9.66742 2.33116C8.84052 3.70314 8.01429 5.07534 7.18784 6.44755C5.85275 8.66481 4.51812 10.8823 3.18303 13.0996C2.19205 14.7457 1.20063 16.3916 0.209427 18.0377C0.126489 18.1753 0.0658037 18.3214 0.0320894 18.4777H0.0318646C0.0318646 18.4777 0.0289427 18.4906 0.024897 18.5132C0.0244475 18.5155 0.023998 18.5177 0.0235484 18.5199C0.0235484 18.521 0.0230989 18.5228 0.0228741 18.5248C0.00579222 18.6244 -0.0241011 18.8665 0.0350113 19.0931C0.0354608 19.0948 0.0361351 19.0964 0.0365846 19.0982C0.131884 19.5033 0.365636 19.8107 0.731999 20.0255C1.39909 20.4166 2.06551 20.8085 2.73238 21.2001C4.38056 22.1676 6.02897 23.135 7.67737 24.1025C9.19227 24.9916 10.7074 25.8805 12.2221 26.7705C12.3385 26.8389 12.4594 26.8936 12.586 26.9328C12.586 26.9328 12.9065 27.057 13.2975 26.9677C13.298 26.9677 13.2984 26.9677 13.2989 26.9674C13.3018 26.9668 13.3045 26.9663 13.3074 26.9657C13.3097 26.965 13.3117 26.9643 13.314 26.9639C13.7664 26.8605 14.0916 26.5904 14.3328 26.1829C15.0963 24.8927 15.8729 23.6103 16.6443 22.3246C18.463 19.2934 20.2818 16.2622 22.1004 13.231C22.6625 12.2939 23.2246 11.3565 23.7865 10.4194C23.9978 10.067 24.0513 9.69197 23.9513 9.29467L23.9515 9.29445ZM16.7191 11.1827C16.3896 11.357 16.0597 11.5306 15.7297 11.7042C15.2489 11.9575 14.7682 12.2109 14.2874 12.4642C14.2629 12.4771 14.2382 12.4902 14.2135 12.5026C14.1815 12.5189 14.1611 12.5073 14.1483 12.4764C14.1377 12.451 14.1265 12.4257 14.115 12.4006C14.0453 12.2452 13.9579 12.1004 13.8466 11.9702C13.6183 11.7029 13.3259 11.5502 12.9788 11.4959C12.7444 11.4592 12.5107 11.4632 12.2801 11.5195C12.0384 11.5784 11.8512 11.7047 11.7723 11.9524C11.688 12.2165 11.7588 12.4124 11.996 12.5613C12.2286 12.7076 12.4828 12.8101 12.7379 12.9104C13.0703 13.0413 13.4144 13.14 13.7489 13.2657C14.2789 13.4646 14.7832 13.7105 15.2404 14.0474C15.6931 14.3808 15.9913 14.8106 16.1075 15.3598C16.1799 15.7017 16.1824 16.0465 16.1511 16.3931C16.1181 16.7593 16.0401 17.1157 15.914 17.4612C15.5674 18.4105 14.9073 19.0666 13.9833 19.4735C13.5261 19.6749 13.0456 19.7932 12.5502 19.8574C12.2106 19.9014 11.8699 19.9226 11.4911 19.9235C10.8885 19.9201 10.2572 19.8574 9.64584 19.6624C8.6407 19.3421 7.87381 18.7416 7.4126 17.7862C7.33708 17.6299 7.27235 17.469 7.22178 17.3033C7.18627 17.1868 7.1748 17.2093 7.28404 17.1537C7.77537 16.9036 8.26692 16.6539 8.75825 16.4038C9.09405 16.2328 9.42962 16.0614 9.76519 15.8902C9.77575 15.8849 9.78631 15.8796 9.7971 15.8742C9.8915 15.8273 9.88993 15.8282 9.93376 15.9182C9.97332 15.9996 10.0127 16.0819 10.059 16.1595C10.3801 16.6977 10.8654 16.9776 11.4864 17.0452C11.8056 17.0799 12.1214 17.0672 12.4342 16.9954C12.5671 16.965 12.6914 16.9129 12.8006 16.8304C12.9199 16.7406 12.9939 16.6221 13.0139 16.4747C13.0431 16.2615 12.9433 16.1094 12.7676 16.0014C12.6118 15.9058 12.4441 15.8326 12.2729 15.7691C11.9042 15.6323 11.5246 15.5294 11.1495 15.4124C10.5608 15.229 10.0077 14.9749 9.52739 14.5843C9.03067 14.1803 8.70409 13.6727 8.58361 13.0427C8.51326 12.6752 8.52113 12.307 8.57664 11.9388C8.65194 11.4397 8.80613 10.967 9.07472 10.535C9.50514 9.84293 10.1095 9.3478 10.8526 9.01454C11.3686 8.78309 11.9141 8.66882 12.4783 8.62947C13.0382 8.59034 13.5915 8.62302 14.1348 8.76264C15.2395 9.047 16.0509 9.70219 16.5944 10.6893C16.6571 10.8032 16.7121 10.9212 16.767 11.039C16.8106 11.1326 16.8088 11.1346 16.7187 11.1822L16.7191 11.1827Z" fill="#1EA1F1"/>
</svg>
